<svg width="512" height="512" viewBox="0 0 512 512" fill="none" xmlns="http://www.w3.org/2000/svg">
<rect width="512" height="512" rx="92" fill="#1F3FA3"/>
<path fill-rule="evenodd" clip-rule="evenodd" d="M247.719 166.916H276.668L253.266 207.446H171.922C170.141 240.85 186.782 274.051 217.716 291.947C261.647 317.294 317.806 302.272 343.193 258.341C366.514 217.933 355.825 166.349 318.332 138.614L338.698 103.348L340.156 104.4C395.91 143.837 412.43 219.431 378.256 278.626C341.694 341.952 260.716 363.654 197.431 327.092C153.459 301.705 129.57 254.9 131.311 207.487H89L112.646 166.957H139.288C141.879 159.911 145.118 152.988 149.005 146.226C183.138 87.0305 256.91 63.5466 318.939 92.1322L319.668 92.4561L299.302 127.763C256.748 109.786 207.27 126.386 184.11 166.471C184.029 166.592 183.948 166.754 183.867 166.876H247.759L247.719 166.916Z" fill="white"/>
<path fill-rule="evenodd" clip-rule="evenodd" d="M219.541 357.742H307.767C316.351 357.742 323.396 364.787 323.396 373.371C323.396 381.955 316.351 389 307.767 389H219.541C210.957 389 203.912 381.955 203.912 373.371C203.912 364.787 210.957 357.742 219.541 357.742Z" fill="white"/>
<path fill-rule="evenodd" clip-rule="evenodd" d="M250.711 399.848H276.584C285.167 399.848 292.213 406.893 292.213 415.477C292.213 424.06 285.167 431.105 276.584 431.105H250.711C242.127 431.105 235.082 424.06 235.082 415.477C235.082 406.893 242.127 399.848 250.711 399.848Z" fill="white"/>
</svg>
